<?xml version="1.0" encoding="UTF-8"?>
<svg id="Layer_2" data-name="Layer 2" xmlns="http://www.w3.org/2000/svg" viewBox="0 0 265.47 56">
  <g id="Layer_2-2" data-name="Layer 2">
    <g id="Layer_1-2" data-name="Layer 1-2">
      <g>
        <rect width="74.29" height="51.33" fill="#0a787f"/>
        <g>
          <path d="M2.78,39.22V8.69h6.32v11.24c.76-.65,1.59-1.18,2.48-1.58.89-.4,1.95-.6,3.19-.6,1.16,0,2.18.2,3.07.6s1.64.96,2.25,1.67,1.07,1.56,1.39,2.55c.31.99.47,2.06.47,3.21v13.44h-6.32v-13.44c0-1.03-.24-1.84-.71-2.42-.48-.58-1.18-.87-2.1-.87-.69,0-1.35.15-1.96.45-.61.3-1.2.7-1.75,1.2v15.07H2.78Z" fill="#fff"/>
          <path d="M33.7,12.28c0,.5-.1.98-.31,1.42-.2.44-.48.83-.84,1.16-.35.33-.76.6-1.23.8s-.97.3-1.5.3-1-.1-1.45-.3-.85-.46-1.19-.8c-.35-.33-.62-.72-.82-1.16-.2-.44-.3-.91-.3-1.42s.1-1,.3-1.45.47-.84.82-1.18.74-.6,1.19-.8.93-.29,1.45-.29,1.03.1,1.5.29.88.46,1.23.8.63.73.84,1.18c.2.45.31.93.31,1.45ZM32.97,18.07v21.15h-6.32v-21.15s6.32,0,6.32,0Z" fill="#fff"/>
          <path d="M47.12,17.75c1.4,0,2.68.22,3.84.65s2.16,1.07,3,1.9,1.49,1.85,1.96,3.05c.47,1.2.7,2.57.7,4.09,0,.48-.02.86-.06,1.16s-.12.54-.22.71c-.11.18-.26.3-.44.37-.18.07-.42.1-.7.1h-12.2c.2,1.77.74,3.05,1.61,3.84s1.99,1.19,3.37,1.19c.73,0,1.37-.09,1.9-.27.53-.18,1-.37,1.42-.59.41-.22.8-.41,1.14-.59s.71-.27,1.09-.27c.5,0,.88.18,1.14.55l1.84,2.26c-.65.75-1.36,1.36-2.11,1.83s-1.53.84-2.32,1.1c-.8.27-1.59.45-2.39.55s-1.55.15-2.27.15c-1.48,0-2.87-.24-4.17-.72-1.3-.48-2.43-1.2-3.41-2.15-.97-.95-1.74-2.13-2.3-3.55-.56-1.41-.85-3.06-.85-4.94,0-1.41.24-2.75.72-4.02.48-1.26,1.18-2.37,2.08-3.32.9-.95,2-1.71,3.28-2.26,1.28-.56,2.74-.84,4.35-.84v.02ZM47.24,22.11c-1.21,0-2.16.34-2.84,1.03s-1.13,1.68-1.35,2.97h7.89c0-.5-.06-.99-.19-1.47-.13-.48-.34-.9-.63-1.27s-.68-.68-1.15-.91c-.48-.23-1.05-.35-1.73-.35Z" fill="#fff"/>
          <path d="M60.26,39.22v-21.15h3.75c.31,0,.57.03.79.08.21.05.39.14.53.25.14.12.25.27.33.46.07.19.14.42.19.69l.35,1.98c.77-1.2,1.65-2.14,2.61-2.83.97-.69,2.02-1.04,3.16-1.04.97,0,1.74.23,2.33.69l-.82,4.65c-.05.29-.16.49-.33.6-.16.12-.38.17-.65.17-.23,0-.5-.03-.82-.09-.31-.06-.71-.09-1.18-.09-1.66,0-2.96.88-3.92,2.65v12.97h-6.32Z" fill="#fff"/>
        </g>
        <g>
          <path d="M80.87,40.1v-17.05l-1.41-.29c-.48-.11-.87-.28-1.17-.52-.3-.23-.44-.58-.44-1.03v-2.52h3.02v-1.22c0-1.23.2-2.34.59-3.33s.96-1.84,1.7-2.54,1.64-1.25,2.7-1.63c1.06-.39,2.27-.58,3.62-.58.52,0,1.01.03,1.46.09s.91.16,1.4.3l-.12,3.12c-.01.22-.07.4-.18.55-.1.15-.23.26-.38.35s-.32.15-.51.2c-.19.04-.37.06-.55.06-.57,0-1.07.06-1.51.17s-.81.31-1.11.59-.52.66-.67,1.12c-.15.46-.23,1.04-.23,1.75v1.01h5.05v4.39h-4.84v17.03h-6.41v-.02Z"/>
          <path d="M104.08,18.31c1.42,0,2.72.22,3.9.66s2.19,1.08,3.04,1.92,1.51,1.87,1.99,3.09c.48,1.22.71,2.6.71,4.15,0,.48-.02.88-.06,1.18-.04.3-.12.54-.23.72-.11.18-.26.3-.44.37-.19.07-.42.1-.71.1h-12.37c.21,1.79.75,3.09,1.63,3.9s2.02,1.21,3.41,1.21c.75,0,1.39-.09,1.92-.27s1.02-.38,1.44-.6.81-.42,1.16-.6c.35-.18.72-.27,1.11-.27.51,0,.9.19,1.16.56l1.86,2.3c-.66.76-1.38,1.38-2.14,1.85-.77.48-1.55.85-2.36,1.12s-1.61.46-2.42.56c-.81.1-1.58.16-2.31.16-1.5,0-2.91-.25-4.23-.73-1.32-.49-2.47-1.22-3.46-2.18-.99-.97-1.77-2.17-2.34-3.6s-.86-3.1-.86-5.01c0-1.43.24-2.79.73-4.08.49-1.28,1.19-2.41,2.11-3.37.92-.97,2.03-1.73,3.33-2.3s2.78-.85,4.42-.85h0ZM104.21,22.74c-1.23,0-2.19.35-2.88,1.04-.69.7-1.15,1.7-1.37,3.01h8.01c0-.51-.07-1.01-.2-1.49s-.34-.91-.64-1.29c-.3-.38-.69-.69-1.17-.92s-1.07-.35-1.76-.35h0Z"/>
          <path d="M117.41,40.1v-21.46h3.97c.4,0,.73.09,1,.27s.46.45.57.81l.37,1.24c.41-.39.84-.75,1.28-1.08s.91-.61,1.42-.84c.5-.23,1.05-.41,1.63-.54.59-.13,1.22-.2,1.91-.2,1.17,0,2.21.2,3.11.61s1.67.97,2.29,1.7c.62.72,1.09,1.59,1.41,2.59s.48,2.09.48,3.26v13.64h-6.41v-13.64c0-1.05-.24-1.87-.72-2.45s-1.19-.88-2.13-.88c-.7,0-1.37.15-1.99.46-.62.3-1.21.71-1.78,1.22v15.29h-6.41,0Z"/>
          <path d="M154.53,23.34c-.17.26-.34.45-.53.56-.19.11-.42.17-.71.17s-.61-.06-.91-.2c-.3-.13-.63-.27-.98-.42-.35-.15-.75-.29-1.19-.42s-.94-.2-1.51-.2c-.81,0-1.44.16-1.87.47s-.65.74-.65,1.29c0,.4.14.73.42.99s.66.49,1.13.69,1,.39,1.59.57,1.2.38,1.82.6,1.23.48,1.82.78c.59.3,1.12.66,1.59,1.1.47.43.84.96,1.13,1.58.28.62.42,1.37.42,2.23,0,1.06-.19,2.04-.58,2.94-.39.9-.96,1.67-1.73,2.32s-1.71,1.15-2.83,1.51c-1.12.36-2.42.54-3.88.54-.73,0-1.46-.07-2.19-.21s-1.44-.32-2.12-.56c-.68-.23-1.31-.51-1.89-.84-.58-.32-1.08-.67-1.49-1.04l1.49-2.36c.18-.28.39-.49.64-.65s.57-.24.97-.24c.37,0,.71.08,1,.25.3.17.62.35.96.54.34.19.75.37,1.21.54.46.17,1.04.25,1.75.25.5,0,.92-.05,1.26-.15.34-.1.62-.25.83-.42s.36-.38.46-.6c.1-.22.14-.45.14-.68,0-.43-.14-.78-.43-1.06-.29-.28-.67-.51-1.14-.71s-1-.39-1.6-.56-1.21-.37-1.83-.59-1.23-.49-1.83-.8-1.13-.7-1.6-1.18-.85-1.06-1.14-1.75-.43-1.52-.43-2.5c0-.91.18-1.78.53-2.6s.88-1.54,1.58-2.16c.7-.62,1.59-1.11,2.65-1.48,1.06-.37,2.3-.55,3.72-.55.77,0,1.52.07,2.25.21s1.4.33,2.04.58c.63.25,1.21.54,1.74.88.52.34.99.71,1.39,1.11l-1.45,2.26-.02-.03Z"/>
          <path d="M167.15,40.43c-1.02,0-1.92-.15-2.7-.44s-1.44-.72-1.97-1.26c-.53-.54-.93-1.2-1.21-1.98-.28-.77-.41-1.63-.41-2.59v-11.09h-1.82c-.33,0-.61-.11-.85-.32-.23-.21-.35-.53-.35-.94v-2.5l3.41-.66,1.26-5.23c.17-.66.63-.99,1.41-.99h3.35v6.27h5.21v4.39h-5.21v10.66c0,.5.12.91.36,1.23s.59.49,1.04.49c.23,0,.43-.02.59-.07s.3-.1.41-.17.23-.12.33-.17.22-.07.36-.07c.19,0,.35.04.47.13s.24.23.36.42l1.94,3.04c-.83.62-1.76,1.09-2.79,1.4s-2.1.47-3.21.47l.02-.02Z"/>
          <path d="M185.36,18.31c1.42,0,2.72.22,3.9.66s2.19,1.08,3.04,1.92c.85.84,1.51,1.87,1.99,3.09.48,1.22.71,2.6.71,4.15,0,.48-.02.88-.06,1.18-.04.3-.12.54-.23.72-.11.18-.26.3-.44.37-.19.07-.42.1-.71.1h-12.37c.21,1.79.75,3.09,1.63,3.9s2.02,1.21,3.41,1.21c.75,0,1.39-.09,1.92-.27s1.02-.38,1.44-.6.81-.42,1.16-.6.72-.27,1.11-.27c.51,0,.9.19,1.16.56l1.86,2.3c-.66.76-1.38,1.38-2.14,1.85-.77.48-1.55.85-2.36,1.12s-1.61.46-2.42.56c-.81.1-1.58.16-2.31.16-1.5,0-2.91-.25-4.23-.73-1.32-.49-2.47-1.22-3.46-2.18-.99-.97-1.77-2.17-2.34-3.6s-.86-3.1-.86-5.01c0-1.43.24-2.79.73-4.08.49-1.28,1.19-2.41,2.11-3.37.92-.97,2.03-1.73,3.33-2.3s2.78-.85,4.42-.85h0ZM185.48,22.74c-1.23,0-2.19.35-2.88,1.04-.69.7-1.15,1.7-1.37,3.01h8.01c0-.51-.07-1.01-.2-1.49-.13-.48-.34-.91-.64-1.29-.3-.38-.69-.69-1.17-.92s-1.07-.35-1.76-.35h0Z"/>
          <path d="M198.68,40.1v-21.46h3.81c.32,0,.58.03.8.08.21.06.39.14.54.26.14.12.25.27.33.47.08.19.14.43.2.7l.35,2.01c.79-1.21,1.67-2.17,2.65-2.88.98-.7,2.05-1.06,3.21-1.06.98,0,1.77.23,2.36.7l-.83,4.72c-.06.29-.17.49-.33.61s-.39.18-.66.18c-.23,0-.51-.03-.83-.09s-.72-.09-1.2-.09c-1.68,0-3.01.9-3.97,2.69v13.16h-6.43Z"/>
          <path d="M211.64,36.85c0-.5.09-.96.28-1.39s.44-.8.77-1.12c.32-.32.71-.57,1.15-.75.44-.19.92-.28,1.45-.28s.99.09,1.43.28c.44.19.83.44,1.16.75.33.32.59.69.78,1.12s.28.89.28,1.39-.09.96-.28,1.4-.44.81-.78,1.13-.72.57-1.16.74c-.44.18-.92.27-1.43.27s-1.01-.09-1.45-.27-.82-.43-1.15-.74c-.32-.32-.58-.69-.77-1.13-.19-.43-.28-.9-.28-1.4Z"/>
          <path d="M237.71,40.1c-.4,0-.73-.09-1-.27s-.46-.45-.57-.81l-.5-1.63c-.43.46-.88.87-1.34,1.24-.47.37-.98.69-1.52.96s-1.13.48-1.76.62-1.31.22-2.04.22c-1.12,0-2.15-.25-3.1-.75-.95-.5-1.77-1.21-2.46-2.15-.69-.94-1.23-2.09-1.62-3.44-.39-1.36-.59-2.91-.59-4.65,0-1.6.22-3.09.66-4.46s1.07-2.56,1.87-3.56c.81-1,1.78-1.78,2.91-2.35s2.38-.85,3.75-.85c1.1,0,2.04.16,2.8.49.77.32,1.46.75,2.08,1.27v-10.86h6.41v30.98h-3.98ZM231.21,35.5c.47,0,.89-.04,1.27-.13s.73-.22,1.04-.38.62-.37.9-.62.56-.54.84-.87v-9.1c-.5-.54-1.02-.91-1.58-1.13s-1.15-.32-1.77-.32-1.14.12-1.63.35c-.5.23-.93.61-1.29,1.13-.37.52-.65,1.19-.86,2.02s-.31,1.83-.31,3,.08,2.08.25,2.86c.17.77.4,1.4.69,1.87.3.48.65.82,1.07,1.02.41.21.88.31,1.39.31h0Z"/>
          <path d="M255.83,18.31c1.42,0,2.72.22,3.9.66,1.18.44,2.19,1.08,3.04,1.92s1.51,1.87,1.99,3.09c.48,1.22.71,2.6.71,4.15,0,.48-.02.88-.06,1.18-.04.3-.12.54-.23.72-.11.18-.26.3-.44.37-.19.07-.42.1-.71.1h-12.37c.21,1.79.75,3.09,1.63,3.9s2.02,1.21,3.41,1.21c.75,0,1.39-.09,1.92-.27s1.02-.38,1.44-.6.81-.42,1.16-.6.72-.27,1.11-.27c.51,0,.9.19,1.16.56l1.86,2.3c-.66.76-1.38,1.38-2.14,1.85-.77.48-1.55.85-2.36,1.12s-1.61.46-2.42.56c-.81.1-1.58.16-2.31.16-1.5,0-2.91-.25-4.23-.73-1.32-.49-2.47-1.22-3.46-2.18-.99-.97-1.77-2.17-2.34-3.6s-.86-3.1-.86-5.01c0-1.43.24-2.79.73-4.08.49-1.28,1.19-2.41,2.11-3.37.92-.97,2.03-1.73,3.33-2.3s2.78-.85,4.42-.85h.01ZM255.96,22.74c-1.23,0-2.19.35-2.88,1.04-.69.7-1.15,1.7-1.37,3.01h8.01c0-.51-.07-1.01-.2-1.49s-.34-.91-.64-1.29c-.3-.38-.69-.69-1.17-.92s-1.07-.35-1.76-.35h.01Z"/>
        </g>
      </g>
    </g>
    <g>
      <path d="M81.45,53.41v.09c0,.35.04.66.12.92s.2.49.35.67c.15.18.33.31.54.41s.45.14.71.14c.23,0,.44-.03.61-.08s.32-.11.43-.17c.12-.06.21-.12.28-.17.07-.05.12-.08.15-.08.04,0,.07.02.09.05l.12.15c-.07.09-.17.18-.3.26s-.26.15-.41.21c-.15.06-.31.1-.49.14s-.35.05-.52.05c-.32,0-.61-.06-.87-.17s-.49-.27-.68-.49c-.19-.21-.33-.47-.43-.78-.1-.31-.15-.66-.15-1.06,0-.34.05-.64.14-.93.1-.28.23-.53.41-.73.18-.2.4-.37.66-.48.26-.11.56-.17.89-.17.26,0,.51.05.73.14.23.09.42.22.59.4s.3.39.39.64c.1.25.14.54.14.87,0,.07,0,.11-.03.14s-.05.04-.09.04h-3.39ZM84.57,53.12c0-.25-.04-.47-.11-.67-.07-.2-.17-.37-.3-.5-.13-.14-.28-.24-.46-.32-.18-.07-.37-.11-.58-.11-.24,0-.46.04-.65.11s-.36.18-.49.32c-.14.14-.25.31-.34.51-.08.2-.14.42-.17.66h3.09Z"/>
      <path d="M86.87,49.65c0,.06-.01.11-.03.16-.02.05-.05.09-.09.13s-.08.07-.13.09c-.05.02-.1.03-.16.03s-.11-.01-.16-.03c-.05-.02-.09-.05-.13-.09-.04-.04-.07-.08-.09-.13-.02-.05-.03-.1-.03-.16s.01-.11.03-.16c.02-.05.05-.1.09-.13.04-.04.08-.07.13-.09s.1-.03.16-.03.11.01.16.03c.05.02.09.05.13.09.04.04.07.08.09.13.02.05.03.11.03.16ZM86.68,51.26v4.67h-.45v-4.67h.45Z"/>
      <path d="M88.7,52.08c.22-.27.46-.48.75-.65.28-.16.6-.24.94-.24.26,0,.48.04.68.12s.36.2.49.35c.13.15.22.34.29.55.07.22.1.46.1.73v2.98h-.45v-2.98c0-.44-.1-.78-.3-1.03s-.51-.37-.91-.37c-.3,0-.59.08-.85.23-.26.15-.5.37-.71.64v3.51h-.45v-4.67h.25c.08,0,.12.04.14.12l.04.7Z"/>
      <path d="M99.41,50.1c-.03.05-.07.08-.12.08-.04,0-.09-.03-.16-.09-.06-.06-.15-.12-.26-.19-.11-.07-.25-.13-.41-.19-.16-.06-.37-.09-.61-.09s-.45.03-.64.1-.34.16-.46.28c-.12.12-.22.26-.28.41-.06.16-.1.32-.1.49,0,.22.05.41.14.56.1.15.22.27.38.37.16.1.33.19.53.26.2.07.4.14.61.21s.41.15.61.23.38.19.53.31c.16.12.28.28.38.46.1.18.14.41.14.68s-.05.54-.14.79c-.1.25-.23.46-.42.64-.18.18-.4.32-.67.43-.26.11-.56.16-.9.16-.44,0-.81-.08-1.13-.23-.32-.16-.59-.37-.83-.64l.13-.21s.08-.07.13-.07c.03,0,.06.02.11.06.04.04.1.08.16.14.06.05.14.11.23.18.09.06.19.12.3.18.12.05.25.1.4.14.15.04.32.06.51.06.26,0,.5-.04.7-.12.21-.08.38-.19.52-.33.14-.14.25-.3.33-.49s.11-.39.11-.61c0-.23-.05-.43-.14-.58-.1-.15-.22-.28-.38-.38s-.33-.19-.53-.25c-.2-.07-.4-.14-.61-.2-.21-.06-.41-.14-.61-.22-.2-.08-.38-.18-.53-.31-.16-.13-.28-.28-.38-.47-.1-.19-.14-.43-.14-.71,0-.22.04-.44.13-.64.08-.21.21-.39.37-.55.16-.16.36-.28.6-.38.24-.1.51-.14.82-.14.34,0,.65.05.93.16s.52.28.75.5l-.11.22Z"/>
      <path d="M101.1,53.41v.09c0,.35.04.66.12.92s.2.49.35.67c.15.18.33.31.54.41s.45.14.71.14c.23,0,.44-.03.61-.08s.32-.11.43-.17c.12-.06.21-.12.28-.17.07-.05.12-.08.15-.08.04,0,.07.02.09.05l.12.15c-.07.09-.17.18-.3.26s-.26.15-.41.21c-.15.06-.31.1-.49.14s-.35.05-.52.05c-.32,0-.61-.06-.87-.17s-.49-.27-.68-.49c-.19-.21-.33-.47-.43-.78-.1-.31-.15-.66-.15-1.06,0-.34.05-.64.14-.93.1-.28.23-.53.41-.73.18-.2.4-.37.66-.48.26-.11.56-.17.89-.17.26,0,.51.05.73.14.23.09.42.22.59.4s.3.39.39.64c.1.25.14.54.14.87,0,.07,0,.11-.03.14s-.05.04-.09.04h-3.39ZM104.22,53.12c0-.25-.04-.47-.11-.67-.07-.2-.17-.37-.3-.5-.13-.14-.28-.24-.46-.32-.18-.07-.37-.11-.58-.11-.24,0-.46.04-.65.11s-.36.18-.49.32c-.14.14-.25.31-.34.51-.08.2-.14.42-.17.66h3.09Z"/>
      <path d="M106.26,52.39c.07-.19.15-.36.25-.51.09-.15.2-.27.32-.38.12-.1.25-.18.4-.24.15-.05.31-.08.49-.08.1,0,.19,0,.29.03.09.02.18.05.25.09l-.04.31c-.02.05-.05.08-.09.08-.04,0-.09-.01-.17-.03-.08-.02-.18-.03-.3-.03-.18,0-.34.03-.48.08-.14.05-.26.14-.37.25-.11.11-.21.24-.29.41-.08.16-.16.35-.23.56v3.02h-.45v-4.67h.24c.05,0,.09.01.11.03s.04.06.04.11l.03.98Z"/>
      <path d="M112.9,51.26l-1.97,4.67h-.39l-1.97-4.67h.35s.08.01.11.04c.03.02.05.05.06.08l1.54,3.68c.05.14.08.27.11.41.03-.13.07-.27.12-.41l1.55-3.68s.04-.06.06-.08c.03-.02.06-.03.1-.03h.34Z"/>
      <path d="M114.54,49.65c0,.06-.01.11-.03.16-.02.05-.05.09-.09.13s-.08.07-.13.09c-.05.02-.1.03-.16.03s-.11-.01-.16-.03c-.05-.02-.09-.05-.13-.09-.04-.04-.07-.08-.09-.13-.02-.05-.03-.1-.03-.16s.01-.11.03-.16c.02-.05.05-.1.09-.13.04-.04.08-.07.13-.09s.1-.03.16-.03.11.01.16.03c.05.02.09.05.13.09.04.04.07.08.09.13.02.05.03.11.03.16ZM114.35,51.26v4.67h-.45v-4.67h.45Z"/>
      <path d="M119.08,51.88s-.03.03-.04.04c-.01.01-.03.02-.06.02-.03,0-.07-.02-.13-.06-.05-.04-.12-.09-.22-.14-.09-.05-.2-.1-.34-.14-.14-.04-.3-.06-.49-.06-.27,0-.51.05-.71.14s-.38.23-.53.41c-.14.18-.25.39-.33.65-.07.25-.11.54-.11.85s.04.62.11.87c.08.25.18.47.33.64.14.17.31.31.51.4.2.09.42.14.67.14.23,0,.41-.03.57-.08s.28-.11.38-.17c.1-.06.18-.12.23-.17s.1-.08.14-.08.07.02.09.05l.12.15c-.07.09-.16.18-.27.26-.11.08-.23.15-.37.21-.14.06-.29.11-.45.14-.16.03-.33.05-.5.05-.3,0-.57-.05-.81-.16-.25-.11-.46-.26-.63-.47-.18-.2-.31-.46-.41-.75-.1-.3-.15-.64-.15-1.01,0-.36.05-.68.14-.97.09-.29.23-.55.41-.76.18-.21.4-.38.66-.49.26-.12.56-.18.9-.18.3,0,.57.05.81.15.23.1.44.23.61.39l-.12.16Z"/>
      <path d="M120.43,53.41v.09c0,.35.04.66.12.92s.2.49.35.67c.15.18.33.31.54.41s.45.14.71.14c.23,0,.44-.03.61-.08s.32-.11.43-.17c.12-.06.21-.12.28-.17.07-.05.12-.08.15-.08.04,0,.07.02.09.05l.12.15c-.07.09-.17.18-.3.26s-.26.15-.41.21c-.15.06-.31.1-.49.14s-.35.05-.52.05c-.32,0-.61-.06-.87-.17s-.49-.27-.68-.49c-.19-.21-.33-.47-.43-.78-.1-.31-.15-.66-.15-1.06,0-.34.05-.64.14-.93.1-.28.23-.53.41-.73.18-.2.4-.37.66-.48.26-.11.56-.17.89-.17.26,0,.51.05.73.14.23.09.42.22.59.4s.3.39.39.64c.1.25.14.54.14.87,0,.07,0,.11-.03.14s-.05.04-.09.04h-3.39ZM123.55,53.12c0-.25-.04-.47-.11-.67-.07-.2-.17-.37-.3-.5-.13-.14-.28-.24-.46-.32-.18-.07-.37-.11-.58-.11-.24,0-.46.04-.65.11s-.36.18-.49.32c-.14.14-.25.31-.34.51-.08.2-.14.42-.17.66h3.09Z"/>
      <path d="M131.23,51.26l-1.97,4.67h-.39l-1.97-4.67h.35s.08.01.11.04c.03.02.05.05.06.08l1.54,3.68c.05.14.08.27.11.41.03-.13.07-.27.12-.41l1.55-3.68s.04-.06.06-.08c.03-.02.06-.03.1-.03h.34Z"/>
      <path d="M133.92,51.19c.33,0,.63.06.9.17.26.11.49.28.67.49.18.21.32.46.42.76.1.3.14.63.14.99s-.05.7-.14.99c-.1.29-.23.55-.42.75-.18.21-.4.37-.67.48-.26.11-.56.17-.9.17s-.63-.06-.9-.17c-.26-.11-.49-.27-.67-.48-.18-.21-.32-.46-.42-.75-.1-.29-.14-.62-.14-.99s.05-.7.14-.99c.1-.3.23-.55.42-.76.18-.21.41-.37.67-.49.26-.11.56-.17.9-.17ZM133.92,55.64c.28,0,.52-.05.73-.14.21-.1.38-.23.52-.41.14-.18.24-.39.31-.64s.1-.53.1-.85-.03-.59-.1-.84c-.07-.25-.17-.47-.31-.65-.14-.18-.31-.32-.52-.41s-.45-.15-.73-.15-.52.05-.73.15-.38.24-.52.41c-.14.18-.24.4-.31.65-.07.25-.11.53-.11.84s.03.6.11.85c.07.25.17.47.31.64.14.18.31.31.52.41.21.1.45.14.73.14Z"/>
      <path d="M137.74,52.08c.22-.27.46-.48.75-.65.28-.16.6-.24.94-.24.26,0,.48.04.68.12s.36.2.49.35c.13.15.22.34.29.55.07.22.1.46.1.73v2.98h-.45v-2.98c0-.44-.1-.78-.3-1.03-.2-.25-.5-.37-.91-.37-.3,0-.59.08-.85.23s-.5.37-.71.64v3.51h-.45v-4.67h.25c.08,0,.12.04.14.12l.04.7Z"/>
      <path d="M148.85,55.52v.41h-3.62v-6.63h.48v6.23h3.14Z"/>
      <path d="M149.46,53.41v.09c0,.35.04.66.12.92.08.27.2.49.35.67.15.18.33.31.54.41.21.09.45.14.71.14.23,0,.44-.03.61-.08.17-.05.32-.11.43-.17s.21-.12.28-.17.12-.08.15-.08c.04,0,.07.02.09.05l.12.15c-.08.09-.17.18-.3.26s-.26.15-.41.21c-.15.06-.31.1-.49.14s-.35.05-.52.05c-.32,0-.61-.06-.87-.17-.26-.11-.49-.27-.68-.49-.19-.21-.33-.47-.43-.78-.1-.31-.15-.66-.15-1.06,0-.34.05-.64.14-.93.1-.28.23-.53.41-.73s.4-.37.66-.48c.26-.11.56-.17.89-.17.26,0,.51.05.73.14.22.09.42.22.59.4s.3.39.39.64c.1.25.14.54.14.87,0,.07,0,.11-.03.14s-.05.04-.09.04h-3.39ZM152.57,53.12c0-.25-.04-.47-.11-.67-.07-.2-.17-.37-.3-.5-.13-.14-.28-.24-.46-.32-.18-.07-.37-.11-.58-.11-.24,0-.46.04-.65.11-.19.08-.36.18-.5.32-.14.14-.25.31-.34.51-.08.2-.14.42-.17.66h3.09Z"/>
      <path d="M160.33,51.26l-1.56,4.67h-.33c-.05,0-.09-.03-.11-.1l-1.28-3.79s-.03-.09-.04-.14-.02-.09-.03-.14c-.02.09-.04.19-.07.28l-1.29,3.79c-.02.07-.06.1-.11.1h-.32l-1.56-4.67h.34s.08.01.11.04c.03.02.05.05.06.08l1.18,3.68c.02.07.04.14.05.21.02.07.03.13.04.2.02-.07.04-.13.06-.2.02-.07.04-.14.07-.21l1.25-3.71c.02-.07.07-.1.13-.1h.18c.07,0,.11.03.14.1l1.24,3.71c.02.07.04.14.06.21.02.06.04.13.05.2.01-.07.03-.13.04-.2.01-.07.03-.13.05-.21l1.19-3.68s.03-.06.06-.08c.03-.02.06-.03.1-.03h.32Z"/>
      <path d="M161.16,51.92c.24-.24.5-.43.77-.55.27-.12.57-.19.91-.19.25,0,.47.04.66.12.19.08.34.19.47.34.12.15.22.33.28.54.06.21.09.45.09.71v3.04h-.18c-.09,0-.15-.04-.17-.13l-.07-.6c-.13.12-.26.24-.38.34s-.26.18-.4.25c-.14.07-.29.12-.45.16s-.33.06-.53.06c-.16,0-.31-.02-.46-.07-.15-.05-.28-.12-.4-.22s-.21-.22-.28-.37c-.07-.15-.11-.33-.11-.55,0-.2.06-.38.17-.55.11-.17.29-.32.53-.44.24-.13.55-.23.93-.3.38-.08.83-.12,1.36-.13v-.49c0-.43-.09-.76-.28-1s-.46-.35-.83-.35c-.22,0-.42.03-.57.09s-.29.13-.4.21c-.11.08-.2.14-.27.21-.07.06-.13.09-.17.09-.03,0-.06,0-.08-.02s-.04-.04-.06-.06l-.08-.14ZM163.9,53.67c-.44.02-.83.05-1.15.11-.32.05-.58.13-.79.22s-.36.21-.46.34-.15.28-.15.44.03.29.08.41c.05.11.12.21.21.28s.19.13.3.16c.11.03.23.05.35.05.18,0,.35-.02.5-.06s.29-.09.42-.16c.13-.07.25-.15.36-.25.11-.1.22-.2.33-.31v-1.22Z"/>
      <path d="M166.26,52.08c.22-.27.46-.48.75-.65.28-.16.6-.24.94-.24.26,0,.48.04.68.12s.36.2.49.35c.13.15.22.34.29.55.07.22.1.46.1.73v2.98h-.45v-2.98c0-.44-.1-.78-.3-1.03-.2-.25-.5-.37-.91-.37-.3,0-.59.08-.85.23s-.5.37-.71.64v3.51h-.45v-4.67h.25c.08,0,.12.04.14.12l.04.7Z"/>
      <path d="M174.62,49.1v6.82h-.24c-.08,0-.13-.04-.14-.12l-.05-.74c-.21.28-.45.51-.72.67-.28.17-.58.25-.93.25-.58,0-1.02-.2-1.34-.6s-.48-.99-.48-1.79c0-.34.04-.66.13-.95s.22-.55.39-.77c.17-.22.38-.39.64-.51.25-.12.54-.19.87-.19s.59.06.82.17c.23.12.43.29.6.52v-2.77h.45ZM174.17,52.26c-.18-.27-.37-.46-.59-.57-.22-.11-.47-.16-.74-.16s-.52.05-.72.15c-.21.1-.38.24-.52.42-.14.18-.24.4-.31.66-.07.25-.11.54-.11.84,0,.69.13,1.2.38,1.53.25.33.62.49,1.1.49.31,0,.59-.08.84-.24.25-.16.48-.38.67-.67v-2.45Z"/>
      <path d="M178,51.19c.33,0,.63.06.9.17s.49.28.67.49c.18.21.32.46.42.76.1.3.14.63.14.99s-.05.7-.14.99c-.1.29-.23.55-.42.75-.18.21-.4.37-.67.48-.26.11-.56.17-.9.17s-.63-.06-.9-.17c-.26-.11-.49-.27-.67-.48-.18-.21-.32-.46-.42-.75-.1-.29-.14-.62-.14-.99s.05-.7.14-.99c.1-.3.23-.55.42-.76.18-.21.41-.37.67-.49s.56-.17.9-.17ZM178,55.64c.28,0,.52-.05.73-.14.21-.1.38-.23.52-.41.14-.18.24-.39.31-.64s.1-.53.1-.85-.03-.59-.1-.84c-.07-.25-.17-.47-.31-.65-.14-.18-.31-.32-.52-.41s-.45-.15-.73-.15-.52.05-.73.15-.38.24-.52.41c-.14.18-.24.4-.31.65-.07.25-.11.53-.11.84s.04.6.11.85.17.47.31.64c.14.18.31.31.52.41.21.1.45.14.73.14Z"/>
      <path d="M187.5,51.26l-1.56,4.67h-.33c-.05,0-.09-.03-.11-.1l-1.28-3.79s-.03-.09-.04-.14-.02-.09-.03-.14c-.02.09-.04.19-.07.28l-1.29,3.79c-.02.07-.06.1-.11.1h-.32l-1.56-4.67h.34s.08.01.11.04c.03.02.05.05.06.08l1.18,3.68c.02.07.04.14.05.21.02.07.03.13.04.2.02-.07.04-.13.06-.2.02-.07.04-.14.07-.21l1.25-3.71c.02-.07.07-.1.13-.1h.18c.07,0,.11.03.14.1l1.24,3.71c.02.07.04.14.06.21.02.06.04.13.05.2.01-.07.03-.13.04-.2.01-.07.03-.13.05-.21l1.19-3.68s.03-.06.06-.08c.03-.02.06-.03.1-.03h.32Z"/>
      <path d="M191.05,51.84s-.06.07-.11.07c-.03,0-.08-.02-.13-.06-.05-.04-.12-.08-.21-.13-.09-.05-.2-.09-.33-.13-.13-.04-.29-.06-.48-.06-.17,0-.32.02-.46.07-.14.05-.26.11-.36.19-.1.08-.17.18-.23.28s-.08.22-.08.34c0,.15.04.27.11.37.07.1.17.18.29.25.12.07.26.13.41.18.16.05.32.1.48.15s.32.11.48.17c.16.06.29.14.41.23s.22.2.29.33c.08.13.11.29.11.48,0,.2-.04.39-.11.57-.07.17-.18.33-.32.45-.14.13-.31.23-.51.3-.2.08-.44.11-.7.11-.33,0-.61-.05-.85-.16-.24-.1-.45-.24-.64-.41l.1-.16s.03-.04.05-.06c.02-.01.05-.02.08-.02.04,0,.09.03.15.08s.13.1.23.16.22.11.36.16c.14.05.32.08.53.08.2,0,.37-.03.52-.08s.27-.13.37-.22.18-.2.23-.33c.05-.13.08-.26.08-.4,0-.16-.04-.29-.11-.39s-.17-.19-.3-.26c-.12-.07-.26-.13-.41-.18-.15-.05-.31-.1-.48-.15-.16-.05-.32-.11-.48-.16-.15-.06-.29-.13-.42-.23-.12-.09-.22-.2-.29-.33-.08-.13-.11-.29-.11-.49,0-.17.04-.32.11-.48s.17-.29.31-.4.29-.21.49-.28c.19-.07.4-.1.64-.1.28,0,.54.04.76.12s.42.21.6.37l-.09.15Z"/>
      <path d="M192.92,49.1v4.16h.22s.08,0,.12-.02c.04-.01.08-.04.13-.09l1.87-1.78s.07-.07.1-.09c.04-.02.08-.03.14-.03h.39l-2.06,1.96c-.06.07-.12.12-.18.15.05.03.09.05.13.09.04.03.07.07.11.11l2.16,2.35h-.39s-.08,0-.12-.02c-.04-.01-.07-.04-.1-.09l-1.96-2.1s-.05-.05-.07-.07c-.02-.02-.05-.03-.07-.04-.03-.01-.05-.02-.09-.02-.03,0-.07,0-.12,0h-.21v2.35h-.45v-6.82h.45Z"/>
      <path d="M197.62,49.65c0,.06-.01.11-.03.16-.02.05-.05.09-.09.13s-.08.07-.13.09c-.05.02-.1.03-.16.03s-.11-.01-.16-.03c-.05-.02-.09-.05-.13-.09s-.07-.08-.09-.13c-.02-.05-.03-.1-.03-.16s.01-.11.03-.16c.02-.05.05-.1.09-.13.04-.04.08-.07.13-.09s.1-.03.16-.03.11.01.16.03.09.05.13.09c.04.04.07.08.09.13.02.05.03.11.03.16ZM197.43,51.26v4.67h-.44v-4.67h.44Z"/>
      <path d="M202.26,49.69v2.79h3.02v.4h-3.02v3.05h-.48v-6.63h3.98v.4h-3.49Z"/>
      <path d="M206.62,53.41v.09c0,.35.04.66.12.92.08.27.2.49.35.67.15.18.33.31.54.41.21.09.45.14.71.14.23,0,.44-.03.61-.08.17-.05.32-.11.43-.17s.21-.12.28-.17.12-.08.15-.08c.04,0,.07.02.09.05l.12.15c-.08.09-.17.18-.3.26s-.26.15-.41.21c-.15.06-.31.1-.49.14s-.35.05-.52.05c-.32,0-.61-.06-.87-.17-.26-.11-.49-.27-.68-.49-.19-.21-.33-.47-.43-.78-.1-.31-.15-.66-.15-1.06,0-.34.05-.64.14-.93.1-.28.23-.53.41-.73s.4-.37.66-.48c.26-.11.56-.17.89-.17.26,0,.51.05.73.14.22.09.42.22.59.4s.3.39.39.64c.1.25.14.54.14.87,0,.07,0,.11-.03.14s-.05.04-.09.04h-3.39ZM209.74,53.12c0-.25-.04-.47-.11-.67-.07-.2-.17-.37-.3-.5-.13-.14-.28-.24-.46-.32-.18-.07-.37-.11-.58-.11-.24,0-.46.04-.65.11-.19.08-.36.18-.5.32-.14.14-.25.31-.34.51-.08.2-.14.42-.17.66h3.09Z"/>
      <path d="M211.78,52.08c.22-.27.46-.48.75-.65.28-.16.6-.24.94-.24.26,0,.48.04.68.12s.36.2.49.35c.13.15.22.34.29.55.07.22.1.46.1.73v2.98h-.45v-2.98c0-.44-.1-.78-.3-1.03-.2-.25-.5-.37-.91-.37-.3,0-.59.08-.85.23s-.5.37-.71.64v3.51h-.45v-4.67h.25c.08,0,.12.04.14.12l.04.7Z"/>
      <path d="M219.08,51.84s-.06.07-.11.07c-.03,0-.08-.02-.13-.06-.05-.04-.12-.08-.21-.13-.09-.05-.2-.09-.33-.13-.13-.04-.29-.06-.48-.06-.17,0-.32.02-.46.07-.14.05-.26.11-.36.19-.1.08-.17.18-.23.28s-.08.22-.08.34c0,.15.04.27.11.37.07.1.17.18.29.25.12.07.26.13.41.18.16.05.32.1.48.15s.32.11.48.17c.16.06.29.14.41.23s.22.2.29.33c.08.13.11.29.11.48,0,.2-.04.39-.11.57-.07.17-.18.33-.32.45-.14.13-.31.23-.51.3-.2.08-.44.11-.7.11-.33,0-.61-.05-.85-.16-.24-.1-.45-.24-.64-.41l.1-.16s.03-.04.05-.06c.02-.01.05-.02.08-.02.04,0,.09.03.15.08s.13.1.23.16.22.11.36.16c.14.05.32.08.53.08.2,0,.37-.03.52-.08s.27-.13.37-.22.18-.2.23-.33c.05-.13.08-.26.08-.4,0-.16-.04-.29-.11-.39s-.17-.19-.3-.26c-.12-.07-.26-.13-.41-.18-.15-.05-.31-.1-.48-.15-.16-.05-.32-.11-.48-.16-.15-.06-.29-.13-.42-.23-.12-.09-.22-.2-.29-.33-.08-.13-.11-.29-.11-.49,0-.17.04-.32.11-.48s.17-.29.31-.4.29-.21.49-.28c.19-.07.4-.1.64-.1.28,0,.54.04.76.12s.42.21.6.37l-.09.15Z"/>
      <path d="M221.77,56c-.32,0-.56-.09-.74-.26-.18-.17-.26-.44-.26-.81v-3.19h-.67s-.06,0-.08-.03-.03-.04-.03-.08v-.17l.8-.06.11-1.67s.02-.05.04-.08.05-.03.08-.03h.21v1.78h1.47v.33h-1.47v3.16c0,.13.02.24.05.33.03.09.08.17.14.23.06.06.13.1.2.13s.16.04.25.04c.11,0,.21-.02.29-.05.08-.03.15-.07.21-.11.06-.04.11-.08.15-.11s.07-.05.09-.05c.03,0,.05.02.08.05l.12.2c-.12.13-.27.24-.45.32-.18.08-.37.12-.57.12Z"/>
      <path d="M223.86,53.41v.09c0,.35.04.66.12.92.08.27.2.49.35.67.15.18.33.31.54.41.21.09.45.14.71.14.23,0,.44-.03.61-.08.17-.05.32-.11.43-.17s.21-.12.28-.17.12-.08.15-.08c.04,0,.07.02.09.05l.12.15c-.08.09-.17.18-.3.26s-.26.15-.41.21c-.15.06-.31.1-.49.14s-.35.05-.52.05c-.32,0-.61-.06-.87-.17-.26-.11-.49-.27-.68-.49-.19-.21-.33-.47-.43-.78-.1-.31-.15-.66-.15-1.06,0-.34.05-.64.14-.93.1-.28.23-.53.41-.73s.4-.37.66-.48c.26-.11.56-.17.89-.17.26,0,.51.05.73.14.22.09.42.22.59.4s.3.39.39.64c.1.25.14.54.14.87,0,.07,0,.11-.03.14s-.05.04-.09.04h-3.39ZM226.97,53.12c0-.25-.04-.47-.11-.67-.07-.2-.17-.37-.3-.5-.13-.14-.28-.24-.46-.32-.18-.07-.37-.11-.58-.11-.24,0-.46.04-.65.11-.19.08-.36.18-.5.32-.14.14-.25.31-.34.51-.08.2-.14.42-.17.66h3.09Z"/>
      <path d="M229.01,52.39c.07-.19.15-.36.25-.51.09-.15.2-.27.32-.38.12-.1.25-.18.4-.24.15-.05.31-.08.49-.08.1,0,.19,0,.29.03.09.02.18.05.25.09l-.04.31c-.02.05-.04.08-.09.08-.04,0-.1-.01-.17-.03s-.18-.03-.3-.03c-.18,0-.34.03-.48.08-.14.05-.26.14-.37.25-.11.11-.21.24-.29.41s-.16.35-.23.56v3.02h-.45v-4.67h.24c.05,0,.09.01.11.03s.04.06.04.11l.03.98Z"/>
      <path d="M232.35,52.07c.2-.28.44-.49.71-.65.27-.16.59-.24.95-.24.28,0,.53.05.76.15.22.1.41.25.57.45s.27.43.35.72c.08.28.12.6.12.96,0,.38-.05.72-.14,1.03-.09.31-.22.58-.4.8s-.39.39-.64.51c-.25.12-.54.18-.86.18s-.61-.06-.85-.19c-.23-.13-.43-.32-.6-.57l-.03.58c0,.08-.05.12-.13.12h-.27v-6.82h.45v2.97ZM232.35,54.91c.18.27.38.46.6.57s.46.16.73.16.52-.05.73-.15.38-.24.52-.43c.14-.19.24-.41.31-.68.07-.27.1-.57.1-.9,0-.64-.13-1.13-.38-1.45-.26-.32-.62-.49-1.08-.49-.33,0-.62.08-.87.24-.25.16-.47.38-.67.67v2.46Z"/>
      <path d="M236.94,51.92c.24-.24.5-.43.77-.55.27-.12.57-.19.91-.19.25,0,.47.04.66.12.19.08.34.19.47.34.12.15.22.33.28.54.06.21.09.45.09.71v3.04h-.18c-.09,0-.15-.04-.17-.13l-.07-.6c-.13.12-.26.24-.38.34s-.26.18-.4.25c-.14.07-.29.12-.45.16s-.33.06-.53.06c-.16,0-.31-.02-.46-.07-.15-.05-.28-.12-.4-.22s-.21-.22-.28-.37c-.07-.15-.11-.33-.11-.55,0-.2.06-.38.17-.55.11-.17.29-.32.53-.44.24-.13.55-.23.93-.3.38-.08.83-.12,1.36-.13v-.49c0-.43-.09-.76-.28-1s-.46-.35-.83-.35c-.22,0-.42.03-.57.09s-.29.13-.4.21c-.11.08-.2.14-.27.21-.07.06-.13.09-.17.09-.03,0-.06,0-.08-.02s-.04-.04-.06-.06l-.08-.14ZM239.68,53.67c-.44.02-.83.05-1.15.11-.32.05-.58.13-.79.22s-.36.21-.46.34-.15.28-.15.44.03.29.08.41c.05.11.12.21.21.28s.19.13.3.16c.11.03.23.05.35.05.18,0,.35-.02.5-.06s.29-.09.42-.16c.13-.07.25-.15.36-.25.11-.1.22-.2.33-.31v-1.22Z"/>
      <path d="M245.23,51.26v4.67h-.25c-.08,0-.12-.04-.14-.12l-.04-.69c-.22.27-.46.48-.75.65-.28.16-.6.24-.94.24-.26,0-.49-.04-.68-.12-.19-.08-.36-.2-.48-.35-.13-.15-.22-.34-.29-.55-.07-.22-.1-.46-.1-.73v-2.98h.45v2.98c0,.44.1.78.3,1.03.2.25.5.37.91.37.3,0,.59-.08.85-.23.26-.15.5-.37.71-.64v-3.51h.45Z"/>
    </g>
  </g>
</svg>