<?xml version="1.0" encoding="UTF-8"?>
<svg id="Layer_2" data-name="Layer 2" xmlns="http://www.w3.org/2000/svg" viewBox="0 0 265.48 51.33">
  <g id="Layer_1-2" data-name="Layer 1">
    <g>
      <rect width="74.29" height="51.33" fill="#00cfff"/>
      <g>
        <path d="M2.78,39.22V8.69h6.32v11.24c.76-.65,1.59-1.18,2.48-1.58.89-.4,1.95-.6,3.19-.6,1.16,0,2.18.2,3.07.6.89.4,1.64.96,2.25,1.67s1.07,1.56,1.39,2.55c.31.99.47,2.06.47,3.21v13.44h-6.32v-13.44c0-1.03-.24-1.84-.71-2.42-.48-.58-1.18-.87-2.1-.87-.69,0-1.35.15-1.96.45-.61.3-1.2.7-1.75,1.2v15.07H2.78Z" fill="#fff"/>
        <path d="M33.7,12.28c0,.5-.1.98-.31,1.42-.2.44-.48.83-.84,1.16-.35.33-.76.6-1.23.8-.47.2-.97.3-1.5.3s-1-.1-1.45-.3c-.45-.2-.85-.46-1.19-.8-.35-.33-.62-.72-.82-1.16-.2-.44-.3-.91-.3-1.42s.1-1,.3-1.45.47-.84.82-1.18.74-.6,1.19-.8.93-.29,1.45-.29,1.03.1,1.5.29.88.46,1.23.8c.35.34.63.73.84,1.18.2.45.31.93.31,1.45ZM32.97,18.07v21.15h-6.32v-21.15h6.32Z" fill="#fff"/>
        <path d="M47.12,17.75c1.4,0,2.68.22,3.84.65s2.16,1.07,3,1.9c.84.83,1.49,1.85,1.96,3.05.47,1.2.7,2.57.7,4.09,0,.48-.02.86-.06,1.16-.04.3-.12.54-.22.71-.11.18-.26.3-.44.37-.18.07-.42.1-.7.1h-12.2c.2,1.77.74,3.05,1.61,3.84s1.99,1.19,3.37,1.19c.73,0,1.37-.09,1.9-.27.53-.18,1-.37,1.42-.59.41-.22.8-.41,1.14-.59s.71-.27,1.09-.27c.5,0,.88.18,1.14.55l1.84,2.26c-.65.75-1.36,1.36-2.11,1.83-.75.47-1.53.84-2.32,1.1-.8.27-1.59.45-2.39.55s-1.55.15-2.27.15c-1.48,0-2.87-.24-4.17-.72-1.3-.48-2.43-1.2-3.41-2.15-.97-.95-1.74-2.13-2.3-3.55-.56-1.41-.85-3.06-.85-4.94,0-1.41.24-2.75.72-4.02.48-1.26,1.18-2.37,2.08-3.32.9-.95,2-1.71,3.28-2.26,1.28-.56,2.74-.84,4.35-.84ZM47.24,22.11c-1.21,0-2.16.34-2.84,1.03-.68.69-1.13,1.68-1.35,2.97h7.89c0-.5-.06-.99-.19-1.47-.13-.48-.34-.9-.63-1.27s-.68-.68-1.15-.91c-.48-.23-1.05-.35-1.73-.35Z" fill="#fff"/>
        <path d="M60.26,39.22v-21.15h3.75c.31,0,.57.03.79.08.21.05.39.14.53.25.14.12.25.27.33.46.07.19.14.42.19.69l.35,1.98c.77-1.2,1.65-2.14,2.61-2.83.97-.69,2.02-1.04,3.16-1.04.97,0,1.74.23,2.33.69l-.82,4.65c-.05.29-.16.49-.33.6-.16.12-.38.17-.65.17-.23,0-.5-.03-.82-.09-.31-.06-.71-.09-1.18-.09-1.66,0-2.96.88-3.92,2.65v12.97h-6.32Z" fill="#fff"/>
      </g>
      <g>
        <path d="M80.87,40.1v-17.05l-1.41-.29c-.48-.11-.87-.28-1.17-.52-.3-.23-.44-.58-.44-1.03v-2.52h3.02v-1.22c0-1.23.2-2.34.59-3.33s.96-1.84,1.7-2.54c.74-.7,1.64-1.25,2.7-1.63,1.06-.39,2.27-.58,3.62-.58.52,0,1.01.03,1.46.09s.91.16,1.4.3l-.12,3.12c-.01.22-.07.4-.18.55-.1.15-.23.26-.38.35s-.32.15-.51.2c-.19.04-.37.06-.55.06-.57,0-1.07.06-1.51.17-.44.11-.81.31-1.11.59-.3.28-.52.66-.67,1.12-.15.46-.23,1.04-.23,1.75v1.01h5.05v4.39h-4.84v17.03h-6.41Z"/>
        <path d="M104.08,18.31c1.42,0,2.72.22,3.9.66,1.18.44,2.19,1.08,3.04,1.92.85.84,1.51,1.87,1.99,3.09.48,1.22.71,2.6.71,4.15,0,.48-.02.88-.06,1.18-.04.3-.12.54-.23.72-.11.18-.26.3-.44.37-.19.07-.42.1-.71.1h-12.37c.21,1.79.75,3.09,1.63,3.9.88.81,2.02,1.21,3.41,1.21.75,0,1.39-.09,1.92-.27s1.02-.38,1.44-.6.81-.42,1.16-.6c.35-.18.72-.27,1.11-.27.51,0,.9.19,1.16.56l1.86,2.3c-.66.76-1.38,1.38-2.14,1.85-.77.48-1.55.85-2.36,1.12-.81.27-1.61.46-2.42.56-.81.1-1.58.16-2.31.16-1.5,0-2.91-.25-4.23-.73-1.32-.49-2.47-1.22-3.46-2.18-.99-.97-1.77-2.17-2.34-3.6s-.86-3.1-.86-5.01c0-1.43.24-2.79.73-4.08.49-1.28,1.19-2.41,2.11-3.37.92-.97,2.03-1.73,3.33-2.3,1.3-.57,2.78-.85,4.42-.85ZM104.21,22.74c-1.23,0-2.19.35-2.88,1.04-.69.7-1.15,1.7-1.37,3.01h8.01c0-.51-.07-1.01-.2-1.49-.13-.48-.34-.91-.64-1.29-.3-.38-.69-.69-1.17-.92s-1.07-.35-1.76-.35Z"/>
        <path d="M117.41,40.1v-21.46h3.97c.4,0,.73.09,1,.27s.46.45.57.81l.37,1.24c.41-.39.84-.75,1.28-1.08s.91-.61,1.42-.84c.5-.23,1.05-.41,1.63-.54.59-.13,1.22-.2,1.91-.2,1.17,0,2.21.2,3.11.61.9.41,1.67.97,2.29,1.7.62.72,1.09,1.59,1.41,2.59s.48,2.09.48,3.26v13.64h-6.41v-13.64c0-1.05-.24-1.87-.72-2.45s-1.19-.88-2.13-.88c-.7,0-1.37.15-1.99.46-.62.3-1.21.71-1.78,1.22v15.29h-6.41Z"/>
        <path d="M154.53,23.34c-.17.26-.34.45-.53.56-.19.11-.42.17-.71.17-.3,0-.61-.06-.91-.2-.3-.13-.63-.27-.98-.42-.35-.15-.75-.29-1.19-.42-.44-.13-.94-.2-1.51-.2-.81,0-1.44.16-1.87.47-.43.31-.65.74-.65,1.29,0,.4.14.73.42.99.28.26.66.49,1.13.69.47.2,1,.39,1.59.57.59.18,1.2.38,1.82.6s1.23.48,1.82.78c.59.3,1.12.66,1.59,1.1.47.43.84.96,1.13,1.58.28.62.42,1.37.42,2.23,0,1.06-.19,2.04-.58,2.94-.39.9-.96,1.67-1.73,2.32s-1.71,1.15-2.83,1.51c-1.12.36-2.42.54-3.88.54-.73,0-1.46-.07-2.19-.21s-1.44-.32-2.12-.56c-.68-.23-1.31-.51-1.89-.84-.58-.32-1.08-.67-1.49-1.04l1.49-2.36c.18-.28.39-.49.64-.65.25-.16.57-.24.97-.24.37,0,.71.08,1,.25.3.17.62.35.96.54.34.19.75.37,1.21.54.46.17,1.04.25,1.75.25.5,0,.92-.05,1.26-.15.34-.1.62-.25.83-.42s.36-.38.46-.6c.1-.22.14-.45.14-.68,0-.43-.14-.78-.43-1.06-.29-.28-.67-.51-1.14-.71-.47-.2-1-.39-1.6-.56-.6-.17-1.21-.37-1.83-.59-.62-.22-1.23-.49-1.83-.8s-1.13-.7-1.6-1.18c-.47-.48-.85-1.06-1.14-1.75s-.43-1.52-.43-2.5c0-.91.18-1.78.53-2.6.35-.82.88-1.54,1.58-2.16.7-.62,1.59-1.11,2.65-1.48,1.06-.37,2.3-.55,3.72-.55.77,0,1.52.07,2.25.21s1.4.33,2.04.58c.63.25,1.21.54,1.74.88.52.34.99.71,1.39,1.11l-1.45,2.26Z"/>
        <path d="M167.15,40.43c-1.02,0-1.92-.15-2.7-.44s-1.44-.72-1.97-1.26c-.53-.54-.93-1.2-1.21-1.98-.28-.77-.41-1.63-.41-2.59v-11.09h-1.82c-.33,0-.61-.11-.85-.32-.23-.21-.35-.53-.35-.94v-2.5l3.41-.66,1.26-5.23c.17-.66.63-.99,1.41-.99h3.35v6.27h5.21v4.39h-5.21v10.66c0,.5.12.91.36,1.23.24.32.59.49,1.04.49.23,0,.43-.02.59-.07.16-.05.3-.1.41-.17s.23-.12.33-.17.22-.07.36-.07c.19,0,.35.04.47.13.12.09.24.23.36.42l1.94,3.04c-.83.62-1.76,1.09-2.79,1.4-1.03.31-2.1.47-3.21.47Z"/>
        <path d="M185.36,18.31c1.42,0,2.72.22,3.9.66,1.18.44,2.19,1.08,3.04,1.92.85.84,1.51,1.87,1.99,3.09.48,1.22.71,2.6.71,4.15,0,.48-.02.88-.06,1.18-.04.3-.12.54-.23.72-.11.18-.26.3-.44.37-.19.07-.42.1-.71.1h-12.37c.21,1.79.75,3.09,1.63,3.9.88.81,2.02,1.21,3.41,1.21.75,0,1.39-.09,1.92-.27s1.02-.38,1.44-.6.81-.42,1.16-.6c.35-.18.72-.27,1.11-.27.51,0,.9.19,1.16.56l1.86,2.3c-.66.76-1.38,1.38-2.14,1.85-.77.48-1.55.85-2.36,1.12-.81.27-1.61.46-2.42.56-.81.1-1.58.16-2.31.16-1.5,0-2.91-.25-4.23-.73-1.32-.49-2.47-1.22-3.46-2.18-.99-.97-1.77-2.17-2.34-3.6s-.86-3.1-.86-5.01c0-1.43.24-2.79.73-4.08.49-1.28,1.19-2.41,2.11-3.37.92-.97,2.03-1.73,3.33-2.3,1.3-.57,2.78-.85,4.42-.85ZM185.48,22.74c-1.23,0-2.19.35-2.88,1.04-.69.7-1.15,1.7-1.37,3.01h8.01c0-.51-.07-1.01-.2-1.49-.13-.48-.34-.91-.64-1.29-.3-.38-.69-.69-1.17-.92s-1.07-.35-1.76-.35Z"/>
        <path d="M198.68,40.1v-21.46h3.81c.32,0,.58.03.8.08.21.06.39.14.54.26.14.12.25.27.33.47.08.19.14.43.2.7l.35,2.01c.79-1.21,1.67-2.17,2.65-2.88.98-.7,2.05-1.06,3.21-1.06.98,0,1.77.23,2.36.7l-.83,4.72c-.06.29-.17.49-.33.61s-.39.18-.66.18c-.23,0-.51-.03-.83-.09-.32-.06-.72-.09-1.2-.09-1.68,0-3.01.9-3.97,2.69v13.16h-6.41Z"/>
        <path d="M211.64,36.85c0-.5.09-.96.28-1.39.19-.43.44-.8.77-1.12.32-.32.71-.57,1.15-.75.44-.19.92-.28,1.45-.28s.99.09,1.43.28c.44.19.83.44,1.16.75.33.32.59.69.78,1.12s.28.89.28,1.39-.09.96-.28,1.4-.44.81-.78,1.13-.72.57-1.16.74c-.44.18-.92.27-1.43.27s-1.01-.09-1.45-.27c-.44-.18-.82-.43-1.15-.74-.32-.32-.58-.69-.77-1.13-.19-.43-.28-.9-.28-1.4Z"/>
        <path d="M237.71,40.1c-.4,0-.73-.09-1-.27-.27-.18-.46-.45-.57-.81l-.5-1.63c-.43.46-.88.87-1.34,1.24-.47.37-.98.69-1.52.96s-1.13.48-1.76.62-1.31.22-2.04.22c-1.12,0-2.15-.25-3.1-.75-.95-.5-1.77-1.21-2.46-2.15-.69-.94-1.23-2.09-1.62-3.44-.39-1.36-.59-2.91-.59-4.65,0-1.6.22-3.09.66-4.46.44-1.37,1.07-2.56,1.87-3.56.81-1,1.78-1.78,2.91-2.35,1.13-.57,2.38-.85,3.75-.85,1.1,0,2.04.16,2.8.49.77.32,1.46.75,2.08,1.27v-10.86h6.41v30.98h-3.97ZM231.21,35.5c.47,0,.89-.04,1.27-.13.38-.09.73-.22,1.04-.38s.62-.37.9-.62c.28-.25.56-.54.84-.87v-9.1c-.5-.54-1.02-.91-1.58-1.13s-1.15-.32-1.77-.32-1.14.12-1.63.35c-.5.23-.93.61-1.29,1.13-.37.52-.65,1.19-.86,2.02s-.31,1.83-.31,3,.08,2.08.25,2.86c.17.77.4,1.4.69,1.87.3.48.65.82,1.07,1.02.41.21.88.31,1.39.31Z"/>
        <path d="M255.83,18.31c1.42,0,2.72.22,3.9.66,1.18.44,2.19,1.08,3.04,1.92.85.84,1.51,1.87,1.99,3.09.48,1.22.71,2.6.71,4.15,0,.48-.02.88-.06,1.18-.04.3-.12.54-.23.72-.11.18-.26.3-.44.37-.19.07-.42.1-.71.1h-12.37c.21,1.79.75,3.09,1.63,3.9.88.81,2.02,1.21,3.41,1.21.75,0,1.39-.09,1.92-.27s1.02-.38,1.44-.6.81-.42,1.16-.6c.35-.18.72-.27,1.11-.27.51,0,.9.19,1.16.56l1.86,2.3c-.66.76-1.38,1.38-2.14,1.85-.77.48-1.55.85-2.36,1.12-.81.27-1.61.46-2.42.56-.81.1-1.58.16-2.31.16-1.5,0-2.91-.25-4.23-.73-1.32-.49-2.47-1.22-3.46-2.18-.99-.97-1.77-2.17-2.34-3.6s-.86-3.1-.86-5.01c0-1.43.24-2.79.73-4.08.49-1.28,1.19-2.41,2.11-3.37.92-.97,2.03-1.73,3.33-2.3,1.3-.57,2.78-.85,4.42-.85ZM255.96,22.74c-1.23,0-2.19.35-2.88,1.04-.69.7-1.15,1.7-1.37,3.01h8.01c0-.51-.07-1.01-.2-1.49-.13-.48-.34-.91-.64-1.29-.3-.38-.69-.69-1.17-.92s-1.07-.35-1.76-.35Z"/>
      </g>
    </g>
  </g>
</svg>