<?xml version="1.0" encoding="UTF-8"?>
<svg id="Layer_2" data-name="Layer 2" xmlns="http://www.w3.org/2000/svg" viewBox="0 0 726.51 137">
  <g id="Layer_2-2" data-name="Layer 2">
    <rect width="202" height="137" fill="#00cfff"/>
    <g isolation="isolate">
      <path d="M19.77,55.54c2.25-2.1,4.73-3.81,7.43-5.12,2.7-1.31,5.87-1.97,9.51-1.97,3.15,0,5.95.54,8.39,1.6,2.44,1.07,4.48,2.57,6.11,4.5,1.63,1.93,2.87,4.24,3.72,6.92.84,2.68,1.27,5.64,1.27,8.86v36.76h-13.9v-36.76c0-3.53-.81-6.26-2.42-8.19-1.61-1.93-4.07-2.9-7.37-2.9-2.4,0-4.65.54-6.75,1.63-2.1,1.09-4.09,2.57-5.97,4.45v41.77H5.87V23.45h13.9v32.08Z" fill="#fff"/>
      <path d="M85.69,32.52c0,1.2-.24,2.33-.73,3.38-.49,1.05-1.14,1.97-1.94,2.76-.81.79-1.75,1.42-2.84,1.89-1.09.47-2.25.7-3.49.7s-2.34-.23-3.41-.7c-1.07-.47-2-1.1-2.79-1.89s-1.42-1.71-1.89-2.76c-.47-1.05-.7-2.18-.7-3.38s.23-2.4.7-3.49c.47-1.09,1.1-2.03,1.89-2.81s1.72-1.42,2.79-1.89c1.07-.47,2.2-.7,3.41-.7s2.4.24,3.49.7c1.09.47,2.04,1.1,2.84,1.89.81.79,1.45,1.73,1.94,2.81.49,1.09.73,2.25.73,3.49ZM83.77,49.35v57.75h-13.96v-57.75h13.96Z" fill="#fff"/>
      <path d="M108.65,79.97c.23,2.96.75,5.53,1.58,7.68.82,2.16,1.91,3.94,3.26,5.35s2.96,2.46,4.81,3.15,3.91,1.04,6.16,1.04,4.19-.26,5.83-.79c1.63-.52,3.06-1.11,4.28-1.75,1.22-.64,2.29-1.22,3.21-1.75.92-.52,1.81-.79,2.67-.79,1.16,0,2.03.43,2.59,1.29l4,5.07c-1.54,1.8-3.26,3.31-5.18,4.53-1.91,1.22-3.91,2.2-5.99,2.93-2.08.73-4.2,1.25-6.36,1.55-2.16.3-4.25.45-6.28.45-4.02,0-7.75-.67-11.2-2-3.45-1.33-6.46-3.3-9.01-5.91-2.55-2.61-4.56-5.83-6.02-9.68-1.46-3.85-2.2-8.3-2.2-13.37,0-3.94.64-7.65,1.91-11.12,1.28-3.47,3.1-6.49,5.49-9.06,2.38-2.57,5.29-4.61,8.73-6.11s7.31-2.25,11.62-2.25c3.64,0,7,.58,10.08,1.75,3.08,1.16,5.72,2.86,7.94,5.09,2.21,2.23,3.95,4.97,5.21,8.22,1.26,3.25,1.89,6.95,1.89,11.12,0,2.1-.23,3.52-.68,4.25s-1.31,1.1-2.59,1.1h-35.74ZM135.17,71.58c0-1.8-.25-3.5-.76-5.09-.51-1.59-1.27-2.99-2.28-4.19-1.01-1.2-2.3-2.15-3.86-2.84-1.56-.69-3.37-1.04-5.43-1.04-4.02,0-7.18,1.14-9.48,3.43s-3.78,5.54-4.42,9.74h26.23Z" fill="#fff"/>
      <path d="M171.19,59.37c1.8-3.45,3.94-6.16,6.42-8.13,2.48-1.97,5.4-2.96,8.78-2.96,2.66,0,4.8.58,6.42,1.75l-.9,10.41c-.19.67-.46,1.15-.82,1.43-.36.28-.84.42-1.44.42-.56,0-1.4-.09-2.5-.28-1.11-.19-2.19-.28-3.24-.28-1.54,0-2.91.23-4.11.68-1.2.45-2.28,1.1-3.24,1.94-.96.84-1.8,1.87-2.53,3.07-.73,1.2-1.42,2.57-2.05,4.11v35.58h-13.9v-57.75h8.16c1.43,0,2.42.25,2.98.76.56.51.94,1.42,1.13,2.73l.84,6.53Z" fill="#fff"/>
    </g>
    <g isolation="isolate">
      <path d="M221.54,109v-47.95l-5.08-.8c-1.1-.23-1.99-.62-2.65-1.17-.67-.55-1-1.34-1-2.37v-5.77h8.73v-4.34c0-3.35.5-6.35,1.51-9.02,1.01-2.66,2.46-4.93,4.34-6.79,1.88-1.86,4.18-3.29,6.88-4.28,2.7-.99,5.75-1.48,9.13-1.48,2.7,0,5.21.36,7.53,1.08l-.29,7.08c-.04.53-.19.96-.46,1.28s-.62.57-1.06.74c-.44.17-.94.29-1.51.34-.57.06-1.18.09-1.83.09-1.67,0-3.17.18-4.48.54-1.31.36-2.43.99-3.34,1.88-.91.89-1.61,2.07-2.08,3.54-.48,1.46-.71,3.28-.71,5.45v3.88h15.24v10.05h-14.78v48h-14.1Z"/>
      <path d="M267.66,81.49c.23,3.01.76,5.6,1.6,7.79.84,2.19,1.94,4,3.31,5.42,1.37,1.43,3,2.49,4.88,3.2,1.88.71,3.97,1.06,6.25,1.06s4.25-.27,5.91-.8,3.1-1.12,4.34-1.77,2.32-1.24,3.25-1.77c.93-.53,1.83-.8,2.71-.8,1.18,0,2.06.44,2.63,1.31l4.05,5.14c-1.56,1.83-3.31,3.36-5.25,4.59-1.94,1.24-3.97,2.23-6.08,2.97-2.11.74-4.26,1.26-6.45,1.57-2.19.3-4.31.46-6.36.46-4.07,0-7.86-.68-11.36-2.03-3.5-1.35-6.54-3.35-9.13-5.99s-4.62-5.92-6.11-9.82c-1.48-3.9-2.23-8.42-2.23-13.56,0-4,.65-7.75,1.94-11.27,1.29-3.52,3.15-6.58,5.57-9.19,2.42-2.61,5.37-4.67,8.85-6.19,3.48-1.52,7.41-2.28,11.79-2.28,3.69,0,7.1.59,10.22,1.77,3.12,1.18,5.8,2.9,8.05,5.17,2.25,2.26,4,5.04,5.28,8.33,1.27,3.29,1.91,7.05,1.91,11.27,0,2.13-.23,3.57-.68,4.31-.46.74-1.33,1.11-2.63,1.11h-36.25ZM294.55,72.98c0-1.83-.26-3.55-.77-5.17-.51-1.62-1.28-3.03-2.31-4.25s-2.33-2.18-3.91-2.88c-1.58-.7-3.42-1.06-5.51-1.06-4.07,0-7.28,1.16-9.62,3.48-2.34,2.32-3.83,5.61-4.48,9.88h26.6Z"/>
      <path d="M330.97,57.63c1.18-1.18,2.43-2.27,3.74-3.28,1.31-1.01,2.7-1.86,4.17-2.57,1.46-.7,3.03-1.26,4.71-1.66,1.67-.4,3.5-.6,5.48-.6,3.2,0,6.03.54,8.5,1.63s4.54,2.61,6.19,4.57c1.66,1.96,2.91,4.3,3.77,7.02.86,2.72,1.28,5.72,1.28,8.99v37.27h-14.1v-37.27c0-3.58-.82-6.34-2.46-8.3s-4.13-2.94-7.48-2.94c-2.44,0-4.72.55-6.85,1.66s-4.15,2.61-6.05,4.51v42.35h-14.1v-58.56h8.62c1.83,0,3.02.86,3.6,2.57l.97,4.62Z"/>
      <path d="M417.9,61.85c-.38.61-.78,1.04-1.2,1.28-.42.25-.95.37-1.6.37-.68,0-1.42-.19-2.2-.57-.78-.38-1.68-.81-2.71-1.28-1.03-.48-2.2-.9-3.51-1.28-1.31-.38-2.86-.57-4.65-.57-2.78,0-4.96.59-6.54,1.77-1.58,1.18-2.37,2.72-2.37,4.62,0,1.25.41,2.31,1.23,3.17.82.86,1.9,1.61,3.25,2.25,1.35.65,2.88,1.23,4.6,1.74,1.71.51,3.45,1.08,5.22,1.68,1.77.61,3.51,1.3,5.22,2.08,1.71.78,3.24,1.77,4.59,2.97,1.35,1.2,2.43,2.64,3.25,4.31.82,1.67,1.23,3.69,1.23,6.05,0,2.82-.5,5.41-1.51,7.79-1.01,2.38-2.5,4.43-4.48,6.17s-4.42,3.08-7.33,4.05c-2.91.97-6.27,1.46-10.07,1.46-2.02,0-3.99-.18-5.91-.54-1.92-.36-3.77-.87-5.54-1.51-1.77-.65-3.41-1.41-4.91-2.28-1.5-.88-2.83-1.83-3.97-2.85l3.25-5.37c.42-.65.91-1.14,1.48-1.48.57-.34,1.29-.51,2.17-.51s1.7.25,2.48.74c.78.5,1.68,1.03,2.71,1.6,1.03.57,2.24,1.1,3.62,1.6,1.39.49,3.15.74,5.28.74,1.67,0,3.11-.2,4.31-.6,1.2-.4,2.19-.92,2.97-1.57.78-.65,1.35-1.4,1.71-2.25.36-.86.54-1.74.54-2.65,0-1.37-.41-2.49-1.23-3.37-.82-.88-1.9-1.64-3.25-2.28-1.35-.65-2.89-1.23-4.62-1.74-1.73-.51-3.5-1.07-5.31-1.68-1.81-.61-3.58-1.32-5.31-2.14-1.73-.82-3.27-1.85-4.62-3.11-1.35-1.26-2.44-2.8-3.25-4.62-.82-1.83-1.23-4.03-1.23-6.62,0-2.4.48-4.68,1.43-6.85.95-2.17,2.35-4.06,4.2-5.68,1.84-1.62,4.15-2.91,6.91-3.88,2.76-.97,5.95-1.46,9.56-1.46,4.03,0,7.71.67,11.02,2s6.07,3.08,8.28,5.25l-3.2,5.08Z"/>
      <path d="M451.86,109.91c-5.1,0-9.01-1.44-11.73-4.31-2.72-2.87-4.08-6.84-4.08-11.9v-32.71h-5.99c-.76,0-1.41-.25-1.94-.74-.53-.49-.8-1.24-.8-2.23v-5.59l9.42-1.54,2.97-15.98c.19-.76.55-1.35,1.08-1.77.53-.42,1.22-.63,2.05-.63h7.31v18.44h15.64v10.05h-15.64v31.74c0,1.83.45,3.25,1.34,4.28.89,1.03,2.12,1.54,3.68,1.54.88,0,1.61-.1,2.2-.31.59-.21,1.1-.43,1.54-.66.44-.23.83-.45,1.17-.66.34-.21.68-.31,1.03-.31.42,0,.76.11,1.03.31.27.21.55.52.86.94l4.22,6.85c-2.05,1.71-4.42,3.01-7.08,3.88-2.66.88-5.42,1.31-8.28,1.31Z"/>
      <path d="M485.19,81.49c.23,3.01.76,5.6,1.6,7.79.84,2.19,1.94,4,3.31,5.42,1.37,1.43,3,2.49,4.88,3.2,1.88.71,3.97,1.06,6.25,1.06s4.25-.27,5.91-.8,3.1-1.12,4.34-1.77,2.32-1.24,3.25-1.77c.93-.53,1.83-.8,2.71-.8,1.18,0,2.06.44,2.63,1.31l4.05,5.14c-1.56,1.83-3.31,3.36-5.25,4.59-1.94,1.24-3.97,2.23-6.08,2.97-2.11.74-4.26,1.26-6.45,1.57-2.19.3-4.31.46-6.36.46-4.07,0-7.86-.68-11.36-2.03-3.5-1.35-6.54-3.35-9.13-5.99s-4.62-5.92-6.11-9.82c-1.48-3.9-2.23-8.42-2.23-13.56,0-4,.65-7.75,1.94-11.27,1.29-3.52,3.15-6.58,5.57-9.19,2.42-2.61,5.37-4.67,8.85-6.19,3.48-1.52,7.41-2.28,11.79-2.28,3.69,0,7.1.59,10.22,1.77,3.12,1.18,5.8,2.9,8.05,5.17,2.25,2.26,4,5.04,5.28,8.33,1.27,3.29,1.91,7.05,1.91,11.27,0,2.13-.23,3.57-.68,4.31-.46.74-1.33,1.11-2.63,1.11h-36.25ZM512.08,72.98c0-1.83-.26-3.55-.77-5.17-.51-1.62-1.28-3.03-2.31-4.25s-2.33-2.18-3.91-2.88c-1.58-.7-3.42-1.06-5.51-1.06-4.07,0-7.28,1.16-9.62,3.48-2.34,2.32-3.83,5.61-4.48,9.88h26.6Z"/>
    </g>
    <g isolation="isolate">
      <path d="M558.35,60.6c1.83-3.5,4-6.25,6.51-8.25,2.51-2,5.48-3,8.9-3,2.7,0,4.87.59,6.51,1.77l-.91,10.56c-.19.68-.47,1.17-.83,1.46-.36.29-.85.43-1.46.43-.57,0-1.42-.09-2.54-.29-1.12-.19-2.22-.29-3.28-.29-1.56,0-2.95.23-4.17.69-1.22.46-2.31,1.11-3.28,1.97-.97.86-1.83,1.89-2.57,3.11s-1.44,2.61-2.08,4.17v36.07h-14.1v-58.56h8.28c1.45,0,2.46.26,3.03.77.57.51.95,1.44,1.14,2.77l.86,6.62Z"/>
    </g>
    <g isolation="isolate">
      <path d="M582.16,101.24c0-1.18.22-2.3.66-3.37.44-1.06,1.04-1.98,1.8-2.74s1.67-1.37,2.74-1.83c1.06-.46,2.21-.68,3.42-.68s2.35.23,3.4.68c1.05.46,1.96,1.07,2.74,1.83.78.76,1.4,1.67,1.86,2.74.46,1.07.68,2.19.68,3.37s-.23,2.35-.68,3.4c-.46,1.05-1.08,1.95-1.86,2.71-.78.76-1.69,1.36-2.74,1.8-1.05.44-2.18.66-3.4.66s-2.36-.22-3.42-.66c-1.07-.44-1.98-1.04-2.74-1.8-.76-.76-1.36-1.66-1.8-2.71-.44-1.05-.66-2.18-.66-3.4Z"/>
      <path d="M662.18,24.18v84.82h-8.62c-1.87,0-3.04-.86-3.54-2.57l-1.2-5.65c-2.36,2.7-5.07,4.89-8.13,6.56-3.06,1.67-6.63,2.51-10.7,2.51-3.2,0-6.13-.67-8.79-2s-4.96-3.26-6.88-5.79c-1.92-2.53-3.41-5.66-4.45-9.39-1.05-3.73-1.57-7.99-1.57-12.79,0-4.34.59-8.37,1.77-12.1,1.18-3.73,2.87-6.96,5.08-9.7,2.21-2.74,4.85-4.88,7.93-6.42s6.54-2.31,10.39-2.31c3.27,0,6.07.51,8.39,1.54,2.32,1.03,4.39,2.42,6.22,4.17v-30.88h14.1ZM648.08,65.39c-1.6-1.94-3.34-3.31-5.22-4.11s-3.91-1.2-6.08-1.2-4.05.4-5.77,1.2c-1.71.8-3.18,2.01-4.39,3.62-1.22,1.62-2.15,3.67-2.8,6.17-.65,2.49-.97,5.43-.97,8.82s.28,6.33.83,8.7c.55,2.38,1.34,4.32,2.37,5.82,1.03,1.5,2.28,2.59,3.77,3.25,1.48.67,3.14,1,4.97,1,2.93,0,5.42-.61,7.48-1.83,2.06-1.22,4-2.95,5.82-5.19v-26.26Z"/>
      <path d="M686.96,81.49c.23,3.01.76,5.6,1.6,7.79s1.94,4,3.31,5.42c1.37,1.43,3,2.49,4.88,3.2,1.88.71,3.97,1.06,6.25,1.06s4.25-.27,5.91-.8,3.1-1.12,4.34-1.77,2.32-1.24,3.25-1.77c.93-.53,1.83-.8,2.71-.8,1.18,0,2.05.44,2.63,1.31l4.05,5.14c-1.56,1.83-3.31,3.36-5.25,4.59-1.94,1.24-3.97,2.23-6.08,2.97-2.11.74-4.26,1.26-6.45,1.57-2.19.3-4.31.46-6.37.46-4.07,0-7.86-.68-11.36-2.03-3.5-1.35-6.55-3.35-9.13-5.99-2.59-2.64-4.62-5.92-6.11-9.82-1.48-3.9-2.23-8.42-2.23-13.56,0-4,.65-7.75,1.94-11.27,1.29-3.52,3.15-6.58,5.57-9.19,2.42-2.61,5.37-4.67,8.85-6.19,3.48-1.52,7.41-2.28,11.79-2.28,3.69,0,7.1.59,10.22,1.77,3.12,1.18,5.8,2.9,8.05,5.17,2.25,2.26,4,5.04,5.28,8.33,1.27,3.29,1.91,7.05,1.91,11.27,0,2.13-.23,3.57-.69,4.31-.46.74-1.33,1.11-2.62,1.11h-36.25ZM713.84,72.98c0-1.83-.26-3.55-.77-5.17-.51-1.62-1.28-3.03-2.31-4.25s-2.33-2.18-3.91-2.88c-1.58-.7-3.42-1.06-5.51-1.06-4.07,0-7.28,1.16-9.62,3.48-2.34,2.32-3.83,5.61-4.48,9.88h26.6Z"/>
    </g>
  </g>
</svg>